<?xml version="1.0" encoding="UTF-8" standalone="no"?>
<svg
   width="31"
   height="31"
   viewBox="0 0 31 31"
   fill="currentColor"
   version="1.1"
   id="svg1187"
   xmlns="http://www.w3.org/2000/svg"
   xmlns:svg="http://www.w3.org/2000/svg">
  <defs
     id="defs1191" />
  <path
     fill-rule="evenodd"
     clip-rule="evenodd"
     d="M 4.5623,0 C 2.04261,0 0,2.04261 0,4.5623 V 25.853 c 0,2.5197 2.04261,4.5623 4.5623,4.5623 H 25.853 c 2.5197,0 4.5623,-2.0426 4.5623,-4.5623 V 13.661 4.5623 C 30.4153,2.04261 28.3727,0 25.853,0 Z m 2.4633555,20.237642 v 1.439884 c 0,0.13258 -0.1074838,0.240051 -0.2400512,0.240051 H 4.3200972 c -0.1325674,0 -0.2400513,-0.10747 -0.2400513,-0.240051 v -1.439884 c 0,-0.132567 0.1074839,-0.240051 0.2400513,-0.240051 h 2.4655071 c 0.1325674,0 0.2400512,0.107484 0.2400512,0.240051 z M 6.6795561,19.277437 H 4.4261452 V 8.562526 c 0,-0.2651494 0.2149532,-0.4801025 0.4801025,-0.4801025 h 1.2932059 c 0.2651495,0 0.4801025,0.2149531 0.4801025,0.4801025 V 9.1213955 C 12.385403,13.609714 18.164846,13.609669 23.870458,9.1213225 V 8.562526 c 0,-0.2651494 0.214954,-0.4801025 0.480103,-0.4801025 h 1.293206 c 0.265149,0 0.480103,0.2149531 0.480103,0.4801025 v 10.714911 h -2.253412 v -3.08562 H 6.6795561 Z M 23.365727,14.991443 h 0.504731 v -4.366562 c -0.167995,0.120875 -0.336297,0.236535 -0.504731,0.350216 z m -1.872588,0 h 0.672332 V 11.7224 c -0.223833,0.127763 -0.447913,0.250176 -0.672332,0.365366 z m -1.872587,0 h 0.672331 v -2.348836 c -0.223905,0.09226 -0.448016,0.179437 -0.672331,0.259289 z m -1.872822,0 h 0.672566 v -1.722452 c -0.224067,0.05752 -0.448251,0.110165 -0.672566,0.155364 z m -1.872587,0 h 0.67233 v -1.384689 c -0.224065,0.0232 -0.448176,0.04094 -0.67233,0.05188 z m -1.872705,0 h 0.672448 v -1.332808 c -0.224198,-0.01094 -0.448338,-0.02869 -0.672448,-0.0519 z m -1.872705,0 h 0.672449 v -1.567131 c -0.224272,-0.0452 -0.448427,-0.09781 -0.672449,-0.155336 z m -1.872586,0 h 0.67233 v -2.089562 c -0.22433,-0.07984 -0.448411,-0.167043 -0.67233,-0.259289 z m -1.872705,0 H 9.0568902 V 12.087766 C 8.8324282,11.972561 8.6083176,11.850118 8.3844417,11.722341 Z m -1.7048856,0 h 0.504629 V 10.975068 C 7.015795,10.861416 6.8475363,10.745772 6.6795561,10.624926 Z M 26.229903,19.997591 H 23.76441 c -0.132567,0 -0.240051,0.107484 -0.240051,0.240051 v 1.439884 c 0,0.13258 0.107484,0.240051 0.240051,0.240051 h 2.465493 c 0.132581,0 0.240051,-0.10747 0.240051,-0.240051 v -1.439884 c 0,-0.132567 -0.10747,-0.240051 -0.240051,-0.240051 z"
     fill="#000000"
     id="path1185" />
</svg>
