<svg version="1.1" xmlns="http://www.w3.org/2000/svg" fill="currentColor" height="500" width="500" viewBox="0 0 500 500">
<path d="M482.4,313.2l-75.4-34.9V161.8L336,131.9V85.8l-91.1-42l-90.6,42v47.6L93,162.3v116l-75.4,34.9v101.8l90.6,42l90.6-42v-23.3
	L250,416l51.1-24.3v23.8l90.6,41.5l90.6-42V313.2z M391.7,345.6l-56.2-26.3l56.2-25.8l56.2,25.8L391.7,345.6z M174.5,108.1
	l60.3,27.3v67.3l-60.3-27.8V108.1z M255,135.4l60.8-27.3v66.8L255,202.8V135.4z M301.1,91.9l-56.2,26.3l-56.2-26.3l56.2-25.8
	L301.1,91.9z M108.2,345.6l-56.7-26.3l56.7-25.8l56.2,25.8L108.2,345.6z M37.8,335.4l60.3,27.3v67.3l-60.3-27.8V335.4z M118.3,430.1
	v-67.3l60.3-27.8v67.3L118.3,430.1z M250,393.7l-51.1-24.3v-56.2l-85.6-39.5v-98.7l41.5-19.2v31.9l90.1,42l91.1-42v-33.4l50.6,21.3
	v98.2l-85.6,39.5v56.2L250,393.7z M321.4,335.4l60.3,27.3v67.3l-60.3-27.8V335.4z M401.9,430.1v-67.3l60.3-27.8v67.3L401.9,430.1z"
	/>
</svg>
