<svg width="20" height="20" viewBox="0 0 20 20" fill="currentColor" xmlns="http://www.w3.org/2000/svg">
<path d="M10 13.575C10.1333 13.575 10.2583 13.5543 10.375 13.513C10.4917 13.4717 10.6 13.4007 10.7 13.3L13.3 10.7C13.4833 10.5167 13.575 10.2833 13.575 10C13.575 9.71667 13.4833 9.48333 13.3 9.3C13.1167 9.11667 12.8833 9.025 12.6 9.025C12.3167 9.025 12.0833 9.11667 11.9 9.3L11 10.2V7C11 6.71667 10.904 6.479 10.712 6.287C10.52 6.095 10.2827 5.99933 10 6C9.71667 6 9.479 6.096 9.287 6.288C9.095 6.48 8.99933 6.71733 9 7V10.2L8.1 9.3C7.91667 9.11667 7.68333 9.025 7.4 9.025C7.11667 9.025 6.88333 9.11667 6.7 9.3C6.51667 9.48333 6.425 9.71667 6.425 10C6.425 10.2833 6.51667 10.5167 6.7 10.7L9.3 13.3C9.4 13.4 9.50833 13.4707 9.625 13.512C9.74167 13.5533 9.86667 13.5743 10 13.575ZM10 20C8.61667 20 7.31667 19.7373 6.1 19.212C4.88333 18.6867 3.825 17.9743 2.925 17.075C2.025 16.175 1.31267 15.1167 0.788 13.9C0.263333 12.6833 0.000666667 11.3833 0 10C0 8.61667 0.262667 7.31667 0.788 6.1C1.31333 4.88333 2.02567 3.825 2.925 2.925C3.825 2.025 4.88333 1.31267 6.1 0.788C7.31667 0.263333 8.61667 0.000666667 10 0C11.3833 0 12.6833 0.262667 13.9 0.788C15.1167 1.31333 16.175 2.02567 17.075 2.925C17.975 3.825 18.6877 4.88333 19.213 6.1C19.7383 7.31667 20.0007 8.61667 20 10C20 11.3833 19.7373 12.6833 19.212 13.9C18.6867 15.1167 17.9743 16.175 17.075 17.075C16.175 17.975 15.1167 18.6877 13.9 19.213C12.6833 19.7383 11.3833 20.0007 10 20ZM10 18C12.2167 18 14.1043 17.221 15.663 15.663C17.2217 14.105 18.0007 12.2173 18 10C18 7.78333 17.221 5.89567 15.663 4.337C14.105 2.77833 12.2173 1.99933 10 2C7.78333 2 5.89567 2.779 4.337 4.337C2.77833 5.895 1.99933 7.78267 2 10C2 12.2167 2.779 14.1043 4.337 15.663C5.895 17.2217 7.78267 18.0007 10 18Z" fill="black"/>
</svg>
