<?xml version="1.0" encoding="UTF-8" standalone="no"?>
<svg
   width="30.4153"
   height="30.4153"
   viewBox="0 0 30.4153 30.4153"
   fill="currentColor"
   version="1.1"
   id="svg4"
   xmlns="http://www.w3.org/2000/svg"
   xmlns:svg="http://www.w3.org/2000/svg">
  <defs
     id="defs8" />
  <path
     fill-rule="evenodd"
     clip-rule="evenodd"
     d="M 4.5623,0 C 2.04261,0 0,2.04261 0,4.5623 V 25.853 c 0,2.5197 2.04261,4.5623 4.5623,4.5623 H 25.853 c 2.5197,0 4.5623,-2.0426 4.5623,-4.5623 V 4.5623 C 30.4153,2.04261 28.3727,0 25.853,0 Z M 15,24.552195 c 1.416156,0 2.564176,-1.148021 2.564176,-2.564176 h -5.128352 c 0,1.416155 1.148022,2.564176 2.564176,2.564176 z M 16.275677,5.4478053 c 0.188728,-1.88018 -2.74008,-1.88018 -2.551354,0 -2.987599,0.6076821 -5.134376,3.2347376 -5.1347619,6.2835117 0,1.407732 -0.6410439,7.692527 -2.5641755,8.974614 H 23.974614 c -1.923131,-1.282087 -2.564175,-7.566882 -2.564175,-8.974614 0,-3.1026525 -2.205191,-5.6924698 -5.134762,-6.2835117 z"
     fill="#000000"
     id="path2" />
</svg>
