<?xml version="1.0" encoding="UTF-8" standalone="no"?>
<svg
   width="30.4153"
   height="30.4153"
   viewBox="0 0 30.4153 30.4153"
   fill="currentColor"
   version="1.1"
   id="svg4"
   xmlns="http://www.w3.org/2000/svg"
   xmlns:svg="http://www.w3.org/2000/svg">
  <defs
     id="defs8" />
  <path
     fill-rule="evenodd"
     clip-rule="evenodd"
     d="M 4.5623,0 C 2.04261,0 0,2.04261 0,4.5623 V 25.853 c 0,2.5197 2.04261,4.5623 4.5623,4.5623 H 25.853 c 2.5197,0 4.5623,-2.0426 4.5623,-4.5623 V 4.5623 C 30.4153,2.04261 28.3727,0 25.853,0 Z m 8.10338,9.2585995 C 10.718027,11.444434 9.3814076,14.584813 9.2572907,14.880654 L 5.8011661,13.401195 9.6678255,9.5354089 C 10.116545,9.0867857 10.765762,8.8863387 11.395884,9.0104298 Z m 1.890335,10.1655755 c 0,0 3.570703,-1.479523 5.623409,-3.531716 5.155499,-5.154362 4.296239,-9.1824104 4.01941,-10.0891975 C 23.291851,5.5169073 19.262872,4.6673876 14.107308,9.8217626 12.054647,11.873968 10.574815,15.443817 10.574815,15.443817 Z m 6.186701,-2.090409 c -2.186368,1.947242 -5.327441,3.283535 -5.62341,3.407625 l 1.479845,3.455347 3.866673,-3.865772 c 0.448706,-0.448642 0.64923,-1.097681 0.525074,-1.727706 z m -8.258419,3.044922 c 0,0.792269 -0.324628,1.508105 -0.840178,2.023547 -1.126583,1.126325 -5.8429529,1.794503 -5.8429529,1.794503 0,0 0.6683131,-4.71527 1.7948962,-5.841596 0.3998343,-0.401884 0.9100916,-0.675822 1.465984,-0.787195 0.5558923,-0.11131 1.1323377,-0.05498 1.6561417,0.161858 0.523809,0.216838 0.971353,0.584423 1.285802,1.055995 0.314466,0.471636 0.481591,1.026064 0.480307,1.592888 z m 3.818885,-8.590627 c 0,-1.049964 0.859261,-1.9090251 1.909475,-1.9090251 1.050215,0 1.909475,0.8590611 1.909475,1.9090251 0,1.04997 -0.85926,1.909038 -1.909475,1.909038 -1.050214,0 -1.909475,-0.859068 -1.909475,-1.909038 z"
     fill="#000000"
     id="path2" />
</svg>
