<?xml version="1.0" standalone="no"?>
<!DOCTYPE svg PUBLIC "-//W3C//DTD SVG 20010904//EN"
 "http://www.w3.org/TR/2001/REC-SVG-20010904/DTD/svg10.dtd">
<svg version="1.0" xmlns="http://www.w3.org/2000/svg"
 width="406.000000pt" height="406.000000pt" viewBox="0 0 406.000000 406.000000"
 preserveAspectRatio="xMidYMid meet">
<metadata>
Created by potrace 1.14, written by Peter Selinger 2001-2017
</metadata>
<g transform="translate(0.000000,406.000000) scale(0.100000,-0.100000)"
fill="#000000" stroke="none">
<path d="M1890 3782 c-41 -20 -109 -53 -150 -71 -41 -19 -115 -53 -165 -76
-49 -23 -110 -51 -135 -63 -180 -82 -237 -111 -241 -123 -3 -8 -5 -103 -4
-212 1 -184 -1 -197 -18 -203 -10 -3 -78 -34 -150 -69 -73 -35 -185 -88 -249
-118 l-118 -56 0 -505 0 -506 -57 -26 c-32 -15 -94 -43 -138 -64 -44 -20 -166
-76 -270 -124 l-190 -87 0 -442 -1 -442 56 -28 c30 -15 129 -62 220 -104 189
-87 276 -127 409 -189 51 -24 99 -44 106 -44 7 0 57 21 112 46 54 26 220 102
368 171 149 68 279 130 290 138 19 11 21 22 20 109 -1 53 0 96 1 96 5 0 127
-57 269 -125 88 -42 167 -77 175 -77 8 0 78 30 155 67 132 63 285 135 289 135
1 0 2 -43 1 -95 0 -53 2 -99 5 -104 6 -11 770 -361 786 -361 7 0 50 18 96 39
45 21 178 83 293 136 116 53 253 117 305 141 l95 45 0 444 0 444 -60 27 c-33
15 -112 52 -175 82 -126 59 -144 67 -305 141 l-110 50 -3 509 -2 509 -163 68
c-89 37 -180 76 -202 85 -22 10 -87 38 -145 62 l-105 44 -3 202 -2 202 -53 24
c-28 13 -173 80 -322 148 -339 157 -410 188 -427 188 -7 -1 -47 -18 -88 -38z
m241 -218 c79 -36 173 -79 209 -96 36 -17 81 -37 100 -45 l35 -15 -80 -39
c-151 -74 -374 -177 -393 -183 -18 -6 -133 43 -400 171 l-103 50 243 111 c134
62 244 112 244 112 1 0 66 -30 145 -66z m-528 -403 c106 -48 215 -98 243 -110
l52 -24 0 -292 -1 -292 -116 52 c-104 47 -225 103 -363 167 l-47 22 0 289 c0
283 1 288 20 282 11 -4 106 -46 212 -94z m998 92 c7 -51 2 -559 -6 -569 -5 -7
-82 -45 -170 -84 -88 -40 -194 -88 -235 -107 -41 -19 -84 -39 -95 -43 -21 -8
-21 -6 -20 284 l0 291 31 15 c17 8 64 30 105 48 41 18 142 64 224 102 158 72
164 74 166 63z m414 -489 l205 -87 -2 -429 -3 -430 -355 -163 c-195 -90 -362
-168 -370 -173 -13 -8 -15 -45 -15 -251 l0 -243 -120 -57 c-66 -32 -166 -80
-223 -106 l-102 -48 -133 63 c-72 35 -170 81 -217 103 -47 21 -87 41 -90 44
-3 2 -5 112 -5 243 0 146 -4 243 -10 248 -6 5 -170 83 -365 173 -195 89 -359
166 -363 169 -7 7 -9 113 -7 670 l1 195 179 82 180 81 0 -138 0 -138 38 -18
c20 -9 78 -36 127 -59 130 -61 196 -91 324 -152 62 -29 115 -53 117 -53 2 0
40 -18 85 -40 45 -22 87 -40 94 -40 7 0 86 34 176 76 90 42 189 87 219 101 30
14 78 35 105 48 28 13 104 48 170 78 l120 55 3 147 c2 124 5 146 17 141 8 -3
107 -44 220 -92z m-2159 -1142 c32 -16 112 -53 177 -82 65 -29 148 -68 185
-85 l66 -32 -44 -20 c-83 -37 -314 -145 -373 -175 -39 -20 -66 -28 -82 -24
-13 3 -77 31 -141 61 -64 30 -117 55 -119 55 -12 0 -206 99 -206 105 0 6 135
72 273 132 23 10 75 35 117 55 42 20 79 37 82 37 3 1 32 -12 65 -27z m2646
-80 c278 -128 260 -117 218 -135 -19 -8 -127 -58 -239 -111 -113 -53 -209 -96
-215 -96 -9 0 -234 103 -414 190 l-73 35 228 104 c125 57 232 108 238 113 13
11 15 10 257 -100z m361 -846 c-16 -9 -152 -73 -293 -138 -25 -11 -82 -38
-127 -59 -46 -21 -84 -35 -84 -31 -1 4 -2 135 -3 292 l-1 285 120 56 c66 30
149 68 185 85 36 16 99 45 140 65 l75 36 3 -291 c2 -268 1 -291 -15 -300z
m-3526 518 c208 -93 314 -141 343 -157 l25 -13 1 -284 c0 -157 -1 -288 -3
-292 -2 -4 -29 6 -61 21 -31 16 -148 70 -259 121 l-203 93 0 289 c0 158 2 288
5 288 2 0 71 -30 152 -66z m1073 -224 l0 -290 -22 -9 c-30 -11 -115 -50 -257
-117 -62 -30 -115 -54 -117 -54 -2 0 -31 -13 -64 -29 -41 -20 -62 -26 -65 -18
-2 7 -3 138 -2 292 l2 279 35 18 c19 9 64 30 100 46 36 16 109 50 163 76 54
25 121 57 150 70 29 14 58 25 65 25 9 1 12 -63 12 -289z m1303 266 c29 -13
145 -65 259 -116 l207 -93 0 -288 c1 -236 -1 -289 -12 -289 -8 0 -49 17 -93
38 -43 21 -156 73 -250 117 l-171 78 0 288 c-1 159 1 289 4 289 2 0 28 -11 56
-24z"/>
</g>
</svg>
