<?xml version="1.0" standalone="no"?>
<!DOCTYPE svg PUBLIC "-//W3C//DTD SVG 20010904//EN"
 "http://www.w3.org/TR/2001/REC-SVG-20010904/DTD/svg10.dtd">
<svg version="1.0" xmlns="http://www.w3.org/2000/svg"
 width="1064.000000pt" height="1064.000000pt" viewBox="0 0 1064.000000 1064.000000"
 preserveAspectRatio="xMidYMid meet">
<metadata>
Created by potrace 1.14, written by Peter Selinger 2001-2017
</metadata>
<g transform="translate(0.000000,1064.000000) scale(0.100000,-0.100000)"
fill="#000000" stroke="none">
<path d="M5100 10001 c-58 -26 -134 -62 -170 -78 -36 -17 -87 -41 -115 -53
-27 -12 -97 -45 -155 -72 -58 -27 -150 -70 -205 -95 -55 -25 -104 -50 -110
-54 -5 -5 -17 -9 -27 -9 -10 0 -18 -4 -18 -10 0 -5 -3 -9 -7 -8 -5 1 -30 -9
-58 -22 -27 -13 -52 -24 -55 -25 -3 -1 -35 -16 -72 -33 -38 -18 -96 -45 -130
-61 -122 -56 -214 -99 -283 -132 -38 -18 -72 -34 -75 -34 -3 -1 -30 -13 -60
-27 -224 -106 -282 -132 -292 -130 -5 1 -8 -2 -8 -8 0 -5 -5 -10 -10 -10 -16
0 -104 -43 -112 -54 -4 -6 -8 -253 -8 -549 l0 -538 -127 -61 c-71 -33 -164
-77 -208 -98 -44 -21 -114 -53 -155 -73 -41 -19 -118 -55 -170 -80 -260 -123
-313 -147 -321 -147 -5 0 -9 -4 -9 -10 0 -5 -3 -9 -7 -8 -5 1 -28 -8 -53 -19
-25 -12 -52 -23 -60 -25 -8 -2 -17 -6 -20 -9 -3 -3 -34 -20 -70 -36 -163 -76
-200 -95 -201 -106 0 -7 -1 -606 -2 -1332 -2 -1050 -5 -1319 -14 -1318 -7 2
-13 -2 -13 -9 0 -6 -3 -8 -6 -5 -4 3 -16 0 -28 -8 -11 -8 -28 -15 -38 -15 -10
0 -18 -4 -18 -9 0 -5 -10 -13 -22 -16 -13 -4 -57 -23 -98 -43 -41 -20 -77 -37
-80 -37 -3 0 -32 -13 -65 -29 -33 -16 -89 -42 -125 -59 -36 -16 -94 -43 -130
-60 -36 -17 -67 -31 -70 -32 -3 -1 -41 -19 -85 -40 -44 -21 -82 -39 -85 -40
-16 -6 -66 -28 -150 -68 -52 -24 -120 -56 -150 -70 -30 -14 -104 -48 -163 -76
-60 -28 -110 -51 -112 -51 -2 0 -55 -25 -119 -55 -63 -30 -120 -55 -126 -55
-5 0 -10 -5 -10 -11 0 -5 -4 -7 -10 -4 -7 4 -10 -386 -10 -1163 l0 -1170 33
-15 c51 -25 207 -97 267 -124 144 -66 200 -92 255 -119 33 -16 62 -29 65 -29
6 -1 81 -36 174 -81 38 -19 73 -34 79 -34 5 0 23 -10 40 -22 18 -13 32 -21 32
-20 0 5 44 -13 145 -60 52 -25 118 -55 145 -68 28 -13 93 -43 145 -68 108 -50
201 -93 280 -129 30 -14 105 -49 167 -78 62 -30 128 -59 147 -66 20 -7 36 -17
36 -22 0 -4 4 -5 10 -2 5 3 10 2 10 -3 0 -24 56 -19 111 9 31 15 59 25 63 22
3 -4 6 -1 6 5 0 7 4 12 9 12 5 0 55 22 112 49 57 26 127 59 154 71 28 12 88
40 134 62 46 22 111 52 145 67 33 16 131 61 216 101 85 40 180 83 210 97 30
14 102 47 158 74 57 27 106 49 108 49 2 0 60 27 129 60 69 33 127 60 129 60 2
0 52 23 112 52 60 29 111 53 114 53 26 8 110 49 110 55 0 4 6 7 14 7 8 0 30 7
49 17 l36 16 1 262 c0 144 2 264 4 266 2 2 41 -15 87 -36 106 -50 268 -127
407 -193 59 -28 145 -70 192 -92 47 -22 87 -41 90 -42 6 -2 176 -82 203 -96 9
-5 25 -13 35 -18 9 -5 47 -23 84 -40 l68 -32 97 46 c54 26 119 56 146 67 26
11 47 24 47 28 0 3 6 7 13 7 6 0 53 20 102 44 50 24 92 44 95 44 3 1 47 22 99
48 51 26 99 47 106 47 7 0 15 5 17 11 2 5 10 12 18 14 38 8 60 18 60 26 0 5 3
8 8 7 4 -1 34 11 67 27 33 16 62 29 65 30 3 1 54 25 114 53 59 29 110 52 112
52 2 0 4 -120 4 -267 l0 -268 31 -17 c17 -10 37 -18 45 -18 8 0 14 -4 14 -10
0 -5 6 -10 13 -10 8 0 27 -6 43 -14 38 -19 186 -87 249 -116 28 -12 88 -41
135 -63 47 -22 90 -41 95 -43 6 -1 63 -27 129 -58 65 -31 120 -56 121 -56 2 0
47 -20 99 -45 52 -24 144 -67 203 -93 148 -68 194 -88 298 -137 50 -24 113
-53 140 -65 81 -36 157 -70 210 -95 28 -13 73 -33 100 -45 28 -13 71 -33 97
-45 49 -24 80 -23 109 2 9 7 25 15 35 17 11 3 75 31 144 63 69 33 143 68 165
78 22 10 81 37 130 60 81 39 162 75 175 80 6 2 211 99 365 171 33 16 62 29 65
29 3 1 57 26 120 57 64 30 132 61 153 69 20 7 37 16 37 20 0 4 10 9 23 13 13
3 70 28 128 54 246 116 281 132 290 132 5 0 9 5 9 10 0 6 3 9 8 8 4 -1 30 8
57 21 28 13 65 29 83 37 l32 14 0 1170 c0 692 -4 1170 -9 1170 -5 0 -58 23
-118 51 -59 28 -126 59 -148 69 -22 10 -98 46 -169 79 -70 34 -130 61 -131 61
-2 0 -60 27 -130 60 -70 33 -128 60 -130 60 -3 0 -95 43 -284 131 -57 27 -105
49 -106 49 -2 0 -45 20 -97 44 -95 45 -222 104 -339 158 l-66 30 0 1329 c0
792 -3 1333 -9 1338 -7 7 -227 103 -244 107 -7 1 -42 16 -114 48 -32 14 -65
26 -72 26 -8 0 -14 5 -14 10 0 6 -6 10 -13 10 -11 0 -86 30 -222 89 -56 25
-104 45 -250 106 -88 36 -173 72 -190 80 -16 7 -50 21 -75 31 -25 10 -55 24
-67 32 -13 8 -23 12 -23 9 0 -5 -52 16 -167 69 -17 8 -33 14 -36 14 -2 0 -26
10 -53 22 -27 12 -53 22 -59 23 -7 0 -11 186 -13 533 l-2 533 -25 9 c-14 5
-77 34 -141 65 -64 30 -117 55 -119 55 -6 0 -174 79 -216 101 -20 10 -39 16
-43 12 -3 -3 -6 -1 -6 5 0 7 -4 12 -9 12 -5 0 -57 23 -116 50 -59 28 -108 50
-110 50 -2 0 -45 20 -96 45 -52 24 -96 44 -99 44 -3 0 -46 20 -96 45 -51 25
-94 46 -97 46 -3 0 -58 25 -123 56 -161 76 -188 87 -196 86 -5 -1 -8 3 -8 10
0 6 -3 8 -7 5 -3 -4 -16 -1 -27 6 -12 8 -61 32 -111 54 -49 23 -126 58 -170
79 -44 21 -82 39 -85 39 -14 4 -110 48 -141 65 -20 11 -38 20 -40 20 -2 0 -51
-22 -109 -49z m165 -488 c36 -15 65 -30 65 -35 0 -4 6 -8 14 -8 7 0 51 -18 97
-39 46 -21 140 -65 209 -96 69 -31 161 -74 205 -95 44 -20 98 -45 120 -55 22
-10 72 -32 110 -50 169 -79 273 -125 282 -124 3 0 9 -3 12 -8 3 -5 28 -17 54
-27 39 -15 46 -21 36 -32 -6 -8 -18 -14 -25 -14 -8 0 -14 -4 -14 -10 0 -5 -6
-10 -13 -10 -7 0 -29 -9 -50 -20 -20 -11 -37 -17 -37 -13 0 5 -4 4 -8 -2 -9
-13 -133 -71 -144 -68 -4 2 -8 -1 -8 -6 0 -5 -13 -12 -30 -16 -16 -4 -30 -11
-30 -16 0 -5 -6 -9 -12 -9 -7 0 -64 -25 -126 -55 -63 -30 -115 -55 -117 -55
-3 0 -146 -67 -305 -142 -123 -59 -222 -104 -232 -107 -4 -1 -28 -12 -52 -26
-25 -14 -50 -25 -57 -25 -7 0 -41 14 -76 30 -34 17 -68 30 -73 30 -6 0 -10 5
-10 12 0 6 -3 9 -6 6 -3 -4 -31 6 -62 22 -31 15 -88 42 -127 60 -123 58 -238
111 -315 148 -41 20 -77 36 -80 37 -3 0 -30 12 -60 27 -270 129 -399 188 -410
188 -6 0 -10 4 -10 9 0 4 -14 12 -31 17 l-31 9 54 27 c29 15 76 37 103 49 28
12 88 39 135 61 47 22 110 51 140 65 30 14 92 43 138 64 46 22 85 39 87 39 2
0 65 29 140 65 75 36 143 65 151 65 7 0 14 5 14 10 0 6 6 10 13 10 6 0 53 20
102 43 50 24 106 49 125 57 19 7 44 20 55 27 24 16 13 18 90 -14z m-1637 -955
c7 -7 12 -9 12 -5 0 4 10 2 23 -5 12 -7 24 -13 27 -13 3 -1 37 -16 75 -34 106
-50 160 -74 275 -126 58 -26 126 -57 153 -71 26 -13 47 -20 47 -17 0 3 9 -2
21 -13 12 -10 22 -17 23 -15 0 2 32 -10 69 -27 38 -18 75 -32 83 -32 8 0 14
-5 14 -11 0 -5 4 -8 9 -5 5 4 11 1 13 -4 2 -6 10 -12 18 -14 21 -4 42 -13 158
-68 57 -26 105 -48 107 -48 1 0 38 -17 81 -37 44 -20 81 -37 84 -38 3 0 16 -7
30 -15 l25 -15 0 -768 c0 -422 -1 -767 -2 -767 0 0 -45 21 -100 46 -129 60
-186 87 -253 117 -50 23 -164 75 -280 130 -25 11 -47 22 -50 22 -3 1 -36 16
-75 34 -38 18 -95 45 -125 59 -30 13 -95 44 -145 67 -49 23 -112 52 -140 65
-27 12 -86 40 -131 60 l-81 38 0 761 c0 556 4 761 12 761 6 0 16 -5 23 -12z
m3198 -749 l-1 -762 -100 -47 c-55 -26 -103 -46 -107 -43 -5 2 -8 1 -8 -4 0
-4 -15 -14 -32 -22 -138 -59 -175 -76 -193 -88 -11 -7 -27 -13 -37 -13 -10 0
-18 -4 -18 -10 0 -5 -6 -10 -13 -10 -8 0 -46 -16 -86 -35 -39 -19 -76 -35 -81
-35 -6 0 -10 -4 -10 -8 0 -5 -6 -9 -12 -9 -7 0 -58 -21 -113 -48 -101 -48
-150 -69 -150 -64 0 6 -70 -36 -77 -46 -4 -5 -8 -7 -8 -3 0 6 -206 -85 -252
-112 -10 -6 -25 -10 -33 -10 -8 0 -15 -4 -15 -10 0 -5 -10 -10 -22 -10 l-23 0
0 757 c0 417 4 763 8 770 8 13 113 63 132 63 8 0 15 3 17 8 2 4 39 22 83 41
44 19 118 53 165 75 47 22 90 41 95 42 14 2 109 47 115 53 3 3 10 7 17 8 6 1
47 19 90 39 43 20 94 43 113 51 19 8 47 21 61 29 14 7 29 11 33 7 3 -3 6 -2 6
3 0 10 56 34 74 33 5 0 12 3 15 8 3 5 31 20 61 32 30 13 81 36 113 51 31 16
57 27 57 24 0 -2 20 8 45 22 25 13 45 21 45 17 0 -4 5 -2 12 5 7 7 17 12 23
12 8 0 11 -208 11 -761z m606 -345 c219 -91 322 -135 340 -145 10 -5 25 -9 33
-9 8 0 15 -4 15 -10 0 -5 6 -10 13 -10 11 0 161 -62 527 -216 19 -8 46 -20 60
-27 l25 -13 3 -1125 2 -1125 -32 -13 c-18 -8 -35 -15 -38 -16 -3 -1 -35 -16
-72 -33 -38 -18 -98 -46 -135 -63 -38 -17 -95 -44 -128 -59 -33 -15 -91 -42
-130 -60 -38 -18 -93 -43 -121 -56 -28 -13 -56 -24 -62 -24 -7 0 -12 -4 -12
-10 0 -5 -9 -10 -20 -10 -11 0 -20 -4 -20 -8 0 -5 -6 -9 -12 -9 -7 0 -60 -23
-118 -50 -58 -28 -127 -61 -155 -73 -27 -12 -88 -41 -135 -62 -87 -41 -166
-78 -255 -118 -27 -12 -87 -40 -133 -61 -45 -22 -87 -39 -92 -39 -6 0 -10 -5
-10 -12 0 -6 -3 -9 -6 -5 -4 3 -34 -8 -68 -25 -33 -18 -63 -32 -66 -33 -3 0
-35 -13 -72 -30 l-67 -30 -1 -646 0 -645 -92 -44 c-51 -24 -95 -44 -98 -45 -3
-1 -48 -22 -100 -47 -52 -25 -144 -69 -205 -98 -60 -28 -144 -68 -185 -88 -41
-20 -78 -36 -82 -34 -5 1 -8 -3 -8 -8 0 -6 -5 -10 -11 -10 -5 0 -60 -24 -122
-54 -62 -29 -122 -57 -134 -61 -13 -3 -23 -11 -23 -16 0 -5 -7 -9 -15 -9 -8 0
-32 -9 -54 -20 l-39 -21 -94 45 c-273 130 -351 166 -359 166 -5 0 -9 4 -9 10
0 5 -3 9 -7 8 -5 -1 -39 13 -78 32 -38 18 -72 34 -75 35 -3 0 -34 15 -70 32
-286 137 -382 183 -427 203 l-53 24 0 642 c0 675 1 660 -42 668 -12 2 -83 34
-198 89 -24 12 -48 21 -52 20 -4 -2 -8 2 -8 7 0 6 -5 10 -10 10 -6 0 -43 15
-83 34 -155 72 -172 80 -177 81 -3 1 -32 14 -65 30 -191 89 -248 115 -256 115
-5 0 -9 5 -9 12 0 6 -3 9 -6 6 -3 -3 -51 16 -107 42 -56 26 -127 59 -157 73
-30 13 -86 40 -125 58 -38 18 -72 34 -75 35 -7 1 -82 36 -185 85 -49 23 -92
43 -95 44 -7 2 -77 34 -173 79 -43 20 -83 36 -88 36 -5 0 -9 5 -9 12 0 6 -3 8
-7 5 -3 -4 -12 -2 -20 4 -11 10 -13 208 -13 1138 l0 1127 33 16 c17 8 37 17
42 19 6 1 50 22 98 46 48 24 89 43 91 43 2 0 48 21 102 47 55 25 101 47 104
48 3 0 28 12 55 25 28 13 52 25 55 25 3 1 34 15 70 32 36 17 106 49 155 72 50
24 102 48 118 56 l27 13 0 -364 0 -364 38 -18 c20 -9 39 -20 40 -24 2 -5 9 -8
16 -8 7 0 39 -13 72 -29 32 -15 82 -39 109 -51 84 -38 299 -140 317 -150 10
-6 25 -10 33 -10 8 0 15 -4 15 -10 0 -5 5 -10 12 -10 6 0 41 -14 77 -32 36
-17 68 -32 71 -33 3 -1 41 -19 85 -39 44 -21 103 -48 130 -61 28 -12 97 -45
155 -73 58 -27 128 -60 155 -72 28 -13 93 -43 145 -67 52 -25 120 -56 150 -70
30 -14 107 -50 170 -80 152 -72 266 -123 277 -123 5 0 34 12 64 27 30 15 59
28 64 29 6 1 53 22 105 47 52 24 120 56 150 70 30 13 104 48 163 76 59 28 110
51 113 51 10 0 100 45 105 53 3 5 9 8 13 7 8 -3 69 22 76 30 3 3 30 16 60 29
30 13 82 36 115 51 33 15 96 45 140 65 84 39 148 68 253 116 34 16 91 43 127
59 94 43 185 85 223 101 17 8 32 17 32 20 0 3 6 6 13 6 6 0 59 23 117 50 58
28 116 53 128 57 l22 7 0 385 c0 211 2 384 4 384 3 0 64 -25 138 -56z m-5284
-3164 c34 -16 64 -30 66 -30 3 0 46 -20 98 -44 51 -24 119 -56 151 -70 31 -14
83 -38 115 -52 31 -15 86 -40 121 -56 62 -28 164 -76 246 -114 22 -10 42 -19
45 -19 3 -1 39 -17 80 -37 119 -56 155 -72 160 -73 16 -4 120 -58 120 -64 0
-3 -15 -12 -32 -20 -59 -26 -151 -68 -258 -119 -58 -27 -134 -63 -170 -80
-141 -65 -248 -115 -316 -148 -38 -19 -75 -34 -81 -34 -6 0 -16 -7 -23 -15 -7
-9 -15 -14 -17 -11 -3 2 -30 -8 -61 -24 -31 -15 -93 -44 -137 -64 -44 -21 -92
-44 -106 -51 -62 -34 -74 -35 -123 -10 -25 13 -46 22 -46 20 0 -2 -22 7 -49
20 -27 14 -54 25 -60 25 -6 0 -11 5 -11 10 0 6 -6 10 -12 10 -7 0 -40 14 -73
30 -33 17 -65 30 -72 30 -7 0 -13 5 -13 10 0 6 -6 10 -13 10 -8 0 -47 16 -88
36 -101 50 -219 104 -225 104 -3 0 -40 18 -84 39 -43 22 -81 37 -84 34 -3 -4
-6 -1 -6 5 0 7 -4 12 -10 12 -9 0 -57 22 -313 143 l-89 41 29 13 c87 39 198
90 271 124 46 21 86 39 87 39 2 0 41 17 87 39 128 59 152 70 159 68 4 -1 16 7
28 17 12 11 21 17 21 13 0 -3 27 8 60 24 34 16 127 59 208 95 81 36 175 79
209 96 34 16 66 30 70 30 4 0 17 7 28 14 28 20 44 18 113 -16z m6470 10 c22
-11 46 -20 52 -20 5 0 10 -5 10 -11 0 -5 4 -8 9 -4 5 3 12 1 16 -5 4 -6 11 -8
16 -5 5 4 9 1 9 -4 0 -6 4 -11 10 -11 5 0 40 -14 77 -31 38 -17 93 -43 123
-56 30 -14 87 -40 125 -58 39 -18 97 -44 130 -59 33 -15 83 -38 112 -52 28
-13 57 -24 62 -24 6 0 11 -4 11 -8 0 -4 29 -19 65 -32 36 -13 65 -28 65 -32 0
-4 7 -8 15 -8 8 0 23 -4 33 -10 49 -27 162 -78 162 -73 0 3 8 -1 18 -10 9 -8
20 -16 25 -16 14 -1 77 -30 77 -35 0 -5 -82 -50 -87 -48 -1 0 -57 -26 -123
-59 -67 -32 -127 -59 -135 -59 -7 0 -15 -5 -17 -11 -2 -5 -10 -11 -18 -13 -8
-1 -46 -17 -85 -36 -166 -78 -352 -165 -485 -227 -41 -19 -122 -58 -180 -85
-58 -28 -114 -54 -126 -58 -16 -6 -45 3 -113 36 -51 24 -94 44 -97 44 -2 0
-44 20 -93 44 -49 24 -92 41 -95 38 -3 -3 -6 0 -6 6 0 7 -9 12 -20 12 -11 0
-20 5 -20 10 0 6 -6 10 -12 10 -7 0 -44 16 -83 35 -38 19 -76 35 -82 35 -7 0
-13 5 -13 12 0 6 -3 9 -6 6 -3 -4 -55 18 -115 48 -60 30 -112 54 -114 54 -3 0
-62 28 -132 62 -71 34 -130 62 -133 62 -3 1 -42 19 -88 40 l-83 40 38 17 c21
9 65 29 98 44 33 15 92 43 131 61 39 19 76 34 83 34 6 0 11 4 11 10 0 5 3 9 8
8 10 -2 20 3 282 124 47 22 108 49 135 61 28 11 53 25 56 30 3 5 9 8 13 8 3
-1 19 5 35 13 16 9 31 12 35 9 3 -4 6 -1 6 5 0 7 6 12 13 12 6 0 53 20 102 43
50 24 106 49 125 57 19 8 37 17 40 20 6 8 59 28 76 29 5 1 29 -8 52 -19z
m-4934 -1692 c0 -420 -2 -766 -3 -770 -1 -7 -123 -68 -236 -118 -27 -12 -87
-40 -133 -61 -45 -21 -84 -39 -86 -39 -3 0 -55 -24 -118 -54 -132 -63 -250
-118 -328 -153 -30 -14 -97 -45 -149 -69 -51 -24 -95 -44 -96 -44 -2 0 -51
-23 -110 -51 -61 -28 -111 -46 -114 -41 -5 8 -6 1406 -2 1509 1 17 15 28 64
50 34 15 65 27 70 25 4 -1 7 2 7 7 0 5 10 13 23 17 12 4 69 29 126 55 57 27
104 49 106 49 2 0 49 22 106 49 181 84 204 95 218 97 8 2 18 9 22 16 5 7 9 10
9 6 0 -3 45 16 100 43 55 27 102 49 105 49 3 0 56 24 118 54 61 29 123 57 137
61 14 4 37 16 53 27 15 11 27 17 27 15 0 -3 17 3 38 13 20 11 39 19 42 20 3 0
5 -343 4 -762z m6491 -5 l0 -768 -70 -36 c-38 -20 -72 -36 -75 -36 -3 1 -39
-15 -80 -35 -83 -40 -212 -101 -220 -103 -16 -5 -71 -31 -205 -94 -82 -40
-151 -72 -152 -72 -2 0 -42 -18 -90 -41 -49 -23 -90 -43 -93 -43 -12 -4 -63
-27 -163 -74 -59 -28 -112 -51 -118 -51 -5 0 -9 -5 -9 -12 0 -6 -3 -9 -6 -5
-4 3 -24 -3 -46 -14 -41 -21 -67 -17 -47 7 6 8 7 14 3 14 -11 0 -12 210 -1
227 4 6 4 14 -1 17 -5 3 -7 20 -5 38 2 18 4 38 3 43 -1 25 -2 92 -1 110 1 11
0 74 -2 140 -2 66 1 125 5 132 5 6 5 14 0 17 -4 2 -7 20 -5 38 5 40 5 36 0
121 -2 37 1 67 5 67 5 0 6 6 1 12 -10 18 -11 210 -1 225 5 6 5 14 0 17 -4 2
-7 20 -5 38 2 18 4 38 3 43 0 6 -1 55 -3 109 l-2 99 95 44 c52 25 118 56 145
70 28 13 51 24 53 24 1 -1 29 12 62 29 33 16 66 30 75 30 8 0 15 3 15 8 0 4
21 16 48 26 26 11 85 38 132 60 47 22 87 41 90 41 3 1 55 25 115 54 61 29 115
54 120 55 6 1 30 13 55 26 25 13 50 25 55 26 8 2 79 34 280 129 17 8 32 15 35
15 3 0 5 -345 5 -767z m-9629 722 c41 -19 77 -35 79 -35 2 0 46 -20 97 -44 51
-24 109 -50 128 -59 19 -8 79 -36 133 -61 55 -25 101 -46 103 -46 2 0 52 -22
110 -50 58 -27 112 -50 120 -50 8 0 14 -4 14 -10 0 -5 4 -10 10 -10 9 0 29 -9
173 -74 136 -62 174 -79 207 -93 71 -31 120 -58 122 -68 4 -31 3 -41 -4 -52
-5 -6 -5 -14 -1 -16 10 -7 10 -48 -1 -65 -4 -7 -4 -12 1 -12 4 0 8 -50 8 -110
0 -67 -4 -110 -10 -110 -7 0 -7 -3 0 -8 13 -9 14 -145 0 -154 -7 -5 -7 -8 1
-8 11 0 12 -60 0 -78 -4 -7 -4 -12 1 -12 12 0 10 -214 -2 -222 -7 -5 -7 -8 0
-8 13 0 14 -150 0 -150 -6 0 -6 -3 1 -8 13 -9 12 -144 -1 -154 -7 -5 -7 -8 0
-8 13 0 14 -150 0 -150 -7 0 -6 -3 0 -8 14 -9 13 -55 0 -64 -7 -5 -7 -8 0 -8
6 0 9 -23 9 -53 -3 -86 -2 -82 -22 -64 -10 10 -23 17 -29 17 -5 0 -42 16 -81
35 -40 19 -123 58 -185 86 -61 28 -143 66 -182 84 -38 18 -95 44 -125 58 -30
14 -154 71 -275 127 -121 56 -251 116 -290 133 -38 18 -96 46 -130 62 l-60 30
0 763 c-1 419 1 762 2 762 2 0 37 -16 79 -35z m6484 3 c30 -13 58 -27 61 -31
3 -5 10 -9 15 -9 9 1 40 -12 124 -52 25 -11 47 -21 50 -22 3 0 25 -10 50 -21
101 -46 509 -232 555 -253 28 -12 87 -40 133 -61 46 -22 89 -39 96 -39 8 0 19
-7 26 -15 7 -8 18 -15 24 -15 26 0 166 -75 167 -90 4 -82 2 -1520 -2 -1520 -9
0 -252 111 -351 160 -31 16 -58 26 -61 24 -2 -3 -10 2 -17 11 -7 8 -18 15 -25
15 -7 0 -49 18 -94 40 -44 22 -83 40 -85 40 -2 0 -57 25 -121 55 -65 31 -139
65 -164 77 -25 11 -83 38 -129 59 -46 22 -87 39 -93 39 -5 0 -9 5 -9 11 0 5
-3 8 -7 6 -5 -3 -55 19 -113 47 l-105 51 0 763 c-1 520 3 761 10 758 5 -2 35
-15 65 -28z"/>
</g>
</svg>
