<svg width="21" height="22" viewBox="0 0 21 22" fill="currentColor" xmlns="http://www.w3.org/2000/svg">
<path d="M10.5 0.58374C4.704 0.58374 0 5.28774 0 11.0837C0 16.8797 4.704 21.5837 10.5 21.5837C16.296 21.5837 21 16.8797 21 11.0837C21 5.28774 16.296 0.58374 10.5 0.58374ZM15.225 15.2837H6.3C4.557 15.2837 3.15 13.8767 3.15 12.1337C3.15 10.3907 4.557 8.98374 6.3 8.98374L6.447 8.99424C6.67393 8.09121 7.19594 7.28982 7.93019 6.71726C8.66445 6.14469 9.56889 5.83374 10.5 5.83374C12.8205 5.83374 14.7 7.71324 14.7 10.0337H15.225C15.9212 10.0337 16.5889 10.3103 17.0812 10.8026C17.5734 11.2949 17.85 11.9625 17.85 12.6587C17.85 13.3549 17.5734 14.0226 17.0812 14.5149C16.5889 15.0072 15.9212 15.2837 15.225 15.2837Z" fill="black"/>
</svg>
