<svg width="21" height="22" viewBox="0 0 21 22" fill="currentColor" xmlns="http://www.w3.org/2000/svg">
<path fill-rule="evenodd" clip-rule="evenodd" d="M10.5 21.5837C13.2848 21.5837 15.9555 20.4775 17.9246 18.5084C19.8938 16.5392 21 13.8685 21 11.0837C21 8.29897 19.8938 5.62825 17.9246 3.65912C15.9555 1.68999 13.2848 0.58374 10.5 0.58374C7.71523 0.58374 5.04451 1.68999 3.07538 3.65912C1.10625 5.62825 0 8.29897 0 11.0837C0 13.8685 1.10625 16.5392 3.07538 18.5084C5.04451 20.4775 7.71523 21.5837 10.5 21.5837V21.5837ZM14.4782 5.83374C12.9536 5.83383 11.4914 6.43956 10.4134 7.51768L10.1115 7.81824C9.90675 8.0243 9.70725 8.23824 9.51825 8.46137H7.41563C7.21927 8.46139 7.02619 8.51171 6.85479 8.60752C6.68339 8.70332 6.53939 8.84143 6.4365 9.00868L5.313 10.8304C5.27337 10.8945 5.24899 10.9669 5.24174 11.0419C5.2345 11.1169 5.24458 11.1926 5.27121 11.2631C5.29784 11.3336 5.34031 11.3971 5.39535 11.4486C5.45038 11.5001 5.51651 11.5383 5.58862 11.5602L7.62562 12.1862L9.3975 13.9581L10.0249 15.9964C10.0468 16.0684 10.085 16.1343 10.1364 16.1892C10.1878 16.2441 10.2511 16.2864 10.3214 16.3131C10.3918 16.3397 10.4673 16.3498 10.5421 16.3427C10.617 16.3356 10.6892 16.3114 10.7533 16.2721L12.5764 15.1499C12.7434 15.0468 12.8812 14.9027 12.9768 14.7314C13.0724 14.56 13.1225 14.367 13.1224 14.1707V12.0642C13.3455 11.8752 13.5594 11.677 13.7655 11.4709L14.0674 11.1691C15.1447 10.0911 15.7499 8.62954 15.75 7.10555V6.98349C15.75 6.67856 15.6289 6.38611 15.4132 6.17049C15.1976 5.95487 14.9052 5.83374 14.6002 5.83374H14.4782ZM7.77525 15.2102C7.71703 15.3407 7.63311 15.4581 7.5285 15.5554C7.01138 16.0726 5.87738 16.2944 5.40225 16.3679C5.37663 16.3722 5.35034 16.3704 5.32558 16.3625C5.30082 16.3546 5.27831 16.3409 5.25994 16.3225C5.24156 16.3041 5.22785 16.2816 5.21996 16.2568C5.21206 16.2321 5.21021 16.2058 5.21456 16.1802C5.28806 15.7051 5.50987 14.5711 6.02831 14.0539C6.19916 13.8688 6.43036 13.7505 6.68049 13.7202C6.93062 13.69 7.18334 13.7498 7.39339 13.8889C7.60344 14.0281 7.75709 14.2374 7.82682 14.4796C7.89655 14.7217 7.8778 14.9807 7.77394 15.2102H7.77525Z" fill="black"/>
</svg>
