<svg width="29" height="29" viewBox="0 0 29 29" fill="currentColor" xmlns="http://www.w3.org/2000/svg">
<path d="M10.6875 5.74251C7.65516 9.14568 5.57415 14.035 5.38091 14.4956L0 12.1922L6.02008 6.17348C6.7187 5.47501 7.72948 5.16293 8.71053 5.35613L10.6875 5.74251ZM13.6306 21.5695C13.6306 21.5695 19.1899 19.266 22.3858 16.0709C30.4125 8.04597 29.0747 1.77462 28.6437 0.362825C27.2316 -0.0830057 20.9588 -1.40564 12.932 6.61931C9.73617 9.81443 7.43219 15.3724 7.43219 15.3724L13.6306 21.5695ZM23.2628 18.3149C19.8588 21.3466 14.9684 23.4271 14.5076 23.6203L16.8116 29L22.8317 22.9813C23.5303 22.2828 23.8425 21.2723 23.6492 20.2914L23.2628 18.3149ZM10.4051 23.0556C10.4051 24.2891 9.89968 25.4036 9.09701 26.2061C7.34301 27.9597 0 29 0 29C0 29 1.04051 21.6587 2.79451 19.9051C3.41702 19.2794 4.21145 18.8529 5.07693 18.6795C5.94241 18.5062 6.83989 18.5939 7.65541 18.9315C8.47094 19.2691 9.16773 19.8414 9.6573 20.5756C10.1469 21.3099 10.4071 22.1731 10.4051 23.0556ZM16.3508 9.68068C16.3508 8.04597 17.6886 6.70848 19.3237 6.70848C20.9588 6.70848 22.2966 8.04597 22.2966 9.68068C22.2966 11.3154 20.9588 12.6529 19.3237 12.6529C17.6886 12.6529 16.3508 11.3154 16.3508 9.68068Z" fill="black"/>
</svg>
