<svg width="21" height="21" viewBox="0 0 21 21" fill="currentColor" xmlns="http://www.w3.org/2000/svg">
<path d="M3.33965 2.79187C4.3035 1.89994 5.4336 1.2066 6.66541 0.751425C7.89722 0.296248 9.20662 0.0881524 10.5189 0.139018C11.8311 0.189883 13.1205 0.498713 14.3133 1.04788C15.5062 1.59704 16.5792 2.37578 17.4712 3.33964C19.2725 5.28623 20.2267 7.86867 20.124 10.5188C20.0213 13.169 18.87 15.6698 16.9234 17.4712C15.9595 18.3631 14.8294 19.0564 13.5976 19.5116C12.3658 19.9668 11.0564 20.1749 9.74419 20.124C7.09401 20.0213 4.59319 18.87 2.79187 16.9234C0.990558 14.9768 0.0362998 12.3944 0.139027 9.74418C0.241755 7.094 1.39305 4.59318 3.33965 2.79187M4.28195 9.69955L6.55044 12.151L12.4362 7.99886L7.84089 13.5455L10.1094 15.997L14.5353 6.05639L4.28195 9.69955Z" fill="black"/>
</svg>
