<svg width="28" height="28" viewBox="0 0 28 28" fill="currentColor" xmlns="http://www.w3.org/2000/svg">
<path d="M6 0C4.4087 0 2.88258 0.632141 1.75736 1.75736C0.632141 2.88258 0 4.4087 0 6V22C0 23.5913 0.632141 25.1174 1.75736 26.2426C2.88258 27.3679 4.4087 28 6 28H22C23.5913 28 25.1174 27.3679 26.2426 26.2426C27.3679 25.1174 28 23.5913 28 22V6C28 4.4087 27.3679 2.88258 26.2426 1.75736C25.1174 0.632141 23.5913 0 22 0H6ZM21.708 9.708L11.708 19.708C11.6151 19.8011 11.5048 19.875 11.3833 19.9254C11.2618 19.9758 11.1315 20.0018 11 20.0018C10.8685 20.0018 10.7382 19.9758 10.6167 19.9254C10.4952 19.875 10.3849 19.8011 10.292 19.708L6.292 15.708C6.10423 15.5202 5.99874 15.2656 5.99874 15C5.99874 14.7344 6.10423 14.4798 6.292 14.292C6.47977 14.1042 6.73445 13.9987 7 13.9987C7.26555 13.9987 7.52023 14.1042 7.708 14.292L11 17.586L20.292 8.292C20.385 8.19902 20.4954 8.12527 20.6168 8.07495C20.7383 8.02463 20.8685 7.99874 21 7.99874C21.1315 7.99874 21.2617 8.02463 21.3832 8.07495C21.5046 8.12527 21.615 8.19902 21.708 8.292C21.801 8.38498 21.8747 8.49535 21.925 8.61683C21.9754 8.73831 22.0013 8.86851 22.0013 9C22.0013 9.13149 21.9754 9.26169 21.925 9.38317C21.8747 9.50465 21.801 9.61502 21.708 9.708V9.708Z" fill="black"/>
</svg>
