<svg width="20" height="21" viewBox="0 0 20 21" fill="currentColor" xmlns="http://www.w3.org/2000/svg">
<path d="M10 0.58374C4.47768 0.58374 0 5.06142 0 10.5837C0 16.1061 4.47768 20.5837 10 20.5837C15.5223 20.5837 20 16.1061 20 10.5837C20 5.06142 15.5223 0.58374 10 0.58374ZM14.3192 7.31812L9.6183 13.836C9.5526 13.9277 9.46599 14.0024 9.36564 14.0539C9.26529 14.1055 9.15411 14.1324 9.04129 14.1324C8.92848 14.1324 8.8173 14.1055 8.71695 14.0539C8.6166 14.0024 8.52999 13.9277 8.46429 13.836L5.6808 9.97883C5.59598 9.86053 5.6808 9.69535 5.82589 9.69535H6.87277C7.10045 9.69535 7.31696 9.80472 7.45089 9.99222L9.04018 12.1976L12.5491 7.33151C12.683 7.14624 12.8973 7.03463 13.1272 7.03463H14.1741C14.3192 7.03463 14.404 7.19981 14.3192 7.31812V7.31812Z" fill="black"/>
</svg>
