<svg width="13" height="32" viewBox="0 0 13 32" fill="currentColor" xmlns="http://www.w3.org/2000/svg">
<path d="M13 16.4444L9.78571 18.2637L6.5 20.1531L3.21429 18.2637L0 16.4444V13.7853L3.21429 15.6746L6.5 17.494L9.78571 15.6746L13 13.7853V16.4444Z" fill="black"/>
<path d="M13 21.6226L9.78571 23.5119L6.5 25.3313L3.21429 23.5119L0 21.6226V19.0334L3.21429 20.8528L6.5 22.7422L9.78571 20.8528L13 19.0334V21.6226Z" fill="black"/>
<path d="M13 28.2003L9.78571 30.0897L6.5 31.9091L3.21429 30.0897L0 28.2003V24.1417L3.21429 25.9611L6.5 27.8505L9.78571 25.9611L13 24.1417V28.2003Z" fill="black"/>
<path d="M9.78571 1.81938L6.5 0L3.21429 1.81938L0 3.70873V11.2661L3.21429 13.1555L6.5 14.9749L9.78571 13.1555L13 11.2661V3.70873L9.78571 1.81938Z" fill="black"/>
</svg>
