<svg version="1.1" xmlns="http://www.w3.org/2000/svg" fill="currentColor" height="16" width="16" viewBox="0 0 16 16" >
    <path d="M 8,0 C 3.5744681,0 0,3.5744681 0,8 c 0,4.425532 3.5744681,8 8,8 4.425532,0 8,-3.574468 8,-8 C 16,3.5744681 12.425532,0 8,0 Z M 10.212766,12.255319 9.118541,12.911854 8,13.544073 6.881459,12.911854 5.787234,12.255319 V 10.844985 L 6.881459,11.477204 8,12.133739 9.118541,11.477204 10.212766,10.844985 Z m 0,-2.2857141 L 9.118541,10.62614 8,11.258359 6.881459,10.62614 5.787234,9.9696049 V 9.0699088 L 6.881459,9.7021277 8,10.358663 9.118541,9.7021277 10.212766,9.0699088 Z m 0,-1.7993921 L 9.118541,8.8024316 8,9.4589666 6.881459,8.8024316 5.787234,8.1702128 V 7.2462006 L 6.881459,7.9027356 8,8.5349544 9.118541,7.9027356 10.212766,7.2462006 Z m 0,-1.7993921 L 9.118541,7.0273556 8,7.6595745 6.881459,7.0273556 5.787234,6.3708207 V 3.7446809 L 6.881459,3.0881459 8,2.4559271 l 1.118541,0.6322188 1.094225,0.656535 z"/>
</svg>
