<svg width="21" height="21" viewBox="0 0 21 21" fill="currentColor" xmlns="http://www.w3.org/2000/svg">
<path d="M3.33965 3.20813C4.3035 2.3162 5.4336 1.62286 6.66541 1.16768C7.89722 0.712508 9.20662 0.504412 10.5189 0.555278C11.8311 0.606144 13.1205 0.914973 14.3133 1.46414C15.5062 2.0133 16.5792 2.79204 17.4712 3.7559C19.2725 5.70249 20.2267 8.28493 20.124 10.9351C20.0213 13.5853 18.87 16.0861 16.9234 17.8874C15.9595 18.7793 14.8294 19.4727 13.5976 19.9279C12.3658 20.383 11.0564 20.5911 9.74419 20.5403C7.09401 20.4375 4.59319 19.2862 2.79187 17.3396C0.990558 15.3931 0.0362998 12.8106 0.139027 10.1604C0.241755 7.51026 1.39305 5.00944 3.33965 3.20813ZM4.28195 10.1158L6.55044 12.5673L12.4362 8.41512L7.84089 13.9618L10.1094 16.4132L14.5353 6.47265L4.28195 10.1158Z"/>
</svg>
