<svg width="31" height="31" viewBox="0 0 31 31" fill="currentColor" xmlns="http://www.w3.org/2000/svg">
<path fill-rule="evenodd" clip-rule="evenodd" d="M4.5623 0C2.04261 0 0 2.04261 0 4.5623V25.853C0 28.3727 2.04261 30.4153 4.5623 30.4153H25.853C28.3727 30.4153 30.4153 28.3727 30.4153 25.853V4.5623C30.4153 2.04261 28.3727 0 25.853 0H4.5623ZM6.45554 21.025C7.42652 21.9731 8.59675 22.4471 9.96623 22.4471H20.8017C21.9298 22.4477 22.889 22.0528 23.6794 21.2624C24.4698 20.472 24.865 19.5125 24.865 18.3838C24.8656 17.346 24.5234 16.4395 23.8383 15.6641C23.1533 14.8888 22.2916 14.4409 21.2532 14.3205C21.2538 12.5604 20.6407 11.0669 19.4139 9.84005C18.187 8.61324 16.6932 7.99983 14.9325 7.99983C13.5028 7.99983 12.2236 8.42873 11.0949 9.28654C9.96623 10.1443 9.21377 11.2655 8.83754 12.65C7.69379 12.9059 6.76827 13.4928 6.06095 14.4108C5.35364 15.3288 4.99998 16.3747 4.99998 17.5486C4.99938 18.9181 5.48456 20.0769 6.45554 21.025Z" fill="black"/>
</svg>
