<svg width="31" height="31" viewBox="0 0 41 41" fill="currentColor" xmlns="http://www.w3.org/2000/svg">
<path fill-rule="evenodd" clip-rule="evenodd" d="M6.02661 0C2.69821 0 0 2.69821 0 6.02662V34.1508C0 37.4792 2.69821 40.1774 6.02662 40.1774H34.1508C37.4792 40.1774 40.1774 37.4792 40.1774 34.1508V6.02661C40.1774 2.69821 37.4792 0 34.1508 0H6.02661ZM7.9519 9.9519C7.34241 10.5614 7 11.388 7 12.25V15.5C7 16.362 7.34241 17.1886 7.9519 17.7981C8.5614 18.4076 9.38805 18.75 10.25 18.75H29.75C30.612 18.75 31.4386 18.4076 32.0481 17.7981C32.6576 17.1886 33 16.362 33 15.5V12.25C33 11.388 32.6576 10.5614 32.0481 9.9519C31.4386 9.34241 30.612 9 29.75 9H10.25C9.38805 9 8.5614 9.34241 7.9519 9.9519ZM29.274 15.024C29.5788 14.7193 29.75 14.306 29.75 13.875C29.75 13.444 29.5788 13.0307 29.274 12.726C28.9693 12.4212 28.556 12.25 28.125 12.25C27.694 12.25 27.2807 12.4212 26.976 12.726C26.6712 13.0307 26.5 13.444 26.5 13.875C26.5 14.306 26.6712 14.7193 26.976 15.024C27.2807 15.3288 27.694 15.5 28.125 15.5C28.556 15.5 28.9693 15.3288 29.274 15.024ZM7.9519 22.9519C7.34241 23.5614 7 24.388 7 25.25V28.5C7 29.362 7.34241 30.1886 7.9519 30.7981C8.5614 31.4076 9.38805 31.75 10.25 31.75H29.75C30.612 31.75 31.4386 31.4076 32.0481 30.7981C32.6576 30.1886 33 29.362 33 28.5V25.25C33 24.388 32.6576 23.5614 32.0481 22.9519C31.4386 22.3424 30.612 22 29.75 22H10.25C9.38805 22 8.5614 22.3424 7.9519 22.9519ZM29.274 28.024C29.5788 27.7193 29.75 27.306 29.75 26.875C29.75 26.444 29.5788 26.0307 29.274 25.726C28.9693 25.4212 28.556 25.25 28.125 25.25C27.694 25.25 27.2807 25.4212 26.976 25.726C26.6712 26.0307 26.5 26.444 26.5 26.875C26.5 27.306 26.6712 27.7193 26.976 28.024C27.2807 28.3288 27.694 28.5 28.125 28.5C28.556 28.5 28.9693 28.3288 29.274 28.024Z" fill="black"/>
</svg>
