<?xml version="1.0" encoding="UTF-8" standalone="no"?>
<svg
   width="30.4153"
   height="30.4153"
   viewBox="0 0 30.4153 30.4153"
   fill="currentColor"
   version="1.1"
   id="svg4"
   xmlns="http://www.w3.org/2000/svg"
   xmlns:svg="http://www.w3.org/2000/svg">
  <defs
     id="defs8" />
  <path
     fill-rule="evenodd"
     clip-rule="evenodd"
     d="M 4.5623,0 C 2.04261,0 0,2.04261 0,4.5623 V 25.853 c 0,2.5197 2.04261,4.5623 4.5623,4.5623 H 25.853 c 2.5197,0 4.5623,-2.0426 4.5623,-4.5623 V 4.5623 C 30.4153,2.04261 28.3727,0 25.853,0 Z m 2.0990701,25.006356 c 0,0 -1.667726,0 -1.667726,-1.667726 0,-1.667726 1.667726,-6.670904 10.0063559,-6.670904 8.33863,0 10.006356,5.003178 10.006356,6.670904 0,1.667726 -1.667726,1.667726 -1.667726,1.667726 z M 15,15 C 21.670901,15 21.670901,4.9936441 15,4.9936441 8.3290994,4.9936441 8.3290994,15 15,15 Z"
     fill="#000000"
     id="path2" />
</svg>
