<?xml version="1.0" encoding="UTF-8" standalone="no"?>
<svg
   width="30.4153"
   height="30.4153"
   viewBox="0 0 30.4153 30.4153"
   fill="currentColor"
   version="1.1"
   id="svg4"
   xmlns="http://www.w3.org/2000/svg"
   xmlns:svg="http://www.w3.org/2000/svg">
  <defs
     id="defs8" />
  <path
     fill-rule="evenodd"
     clip-rule="evenodd"
     d="M 4.5623,0 C 2.04261,0 0,2.04261 0,4.5623 V 25.853 c 0,2.5197 2.04261,4.5623 4.5623,4.5623 H 25.853 c 2.5197,0 4.5623,-2.0426 4.5623,-4.5623 V 4.5623 C 30.4153,2.04261 28.3727,0 25.853,0 Z M 9.1943896,24.689907 C 8.6838027,24.951814 8.1044322,24.492815 8.2076077,23.906831 L 9.3055017,17.650158 4.6454046,13.210962 C 4.2102153,12.795614 4.4364079,12.036348 5.0197468,11.954336 l 6.4788972,-0.920643 2.888916,-5.7236 c 0.260585,-0.5158779 0.965618,-0.5158779 1.226202,0 l 2.888917,5.7236 6.478897,0.920643 c 0.583339,0.08201 0.809531,0.841278 0.373019,1.256626 l -4.658774,4.439196 1.097894,6.256673 c 0.103176,0.585984 -0.476195,1.044983 -0.986782,0.783076 l -5.808256,-2.984155 -5.8056102,2.984155 z"
     fill="#000000"
     id="path2" />
</svg>
