<svg width="31" height="31" viewBox="0 0 31 31" fill="currentColor" xmlns="http://www.w3.org/2000/svg">
<path fill-rule="evenodd" clip-rule="evenodd" d="M0 4.5623C0 2.04261 2.04261 0 4.5623 0H25.853C28.3727 0 30.4153 2.04261 30.4153 4.5623V25.853C30.4153 28.3727 28.3727 30.4153 25.853 30.4153H4.5623C2.04261 30.4153 0 28.3727 0 25.853V4.5623ZM15.3214 17.4288C15.5916 17.4293 15.8594 17.3765 16.1092 17.2735C16.3591 17.1705 16.5862 17.0193 16.7776 16.8285C16.969 16.6377 17.1209 16.411 17.2247 16.1615C17.3285 15.9119 17.3821 15.6444 17.3825 15.3741C17.382 15.1039 17.3284 14.8364 17.2246 14.5869C17.1208 14.3374 16.9688 14.1108 16.7774 13.9201C16.586 13.7293 16.3589 13.5781 16.1091 13.4751C15.8593 13.3721 15.5916 13.3194 15.3214 13.3198C14.7758 13.319 14.2522 13.5349 13.8658 13.9201C13.4794 14.3052 13.2617 14.8281 13.2608 15.3737C13.2611 15.6439 13.3146 15.9115 13.4183 16.161C13.5221 16.4106 13.6739 16.6373 13.8653 16.8281C14.0567 17.019 14.2837 17.1703 14.5336 17.2733C14.7834 17.3764 15.0511 17.4293 15.3214 17.4288ZM9.6557 9.72997C10.069 9.31795 10.07 8.64891 9.658 8.23562C9.24598 7.82233 8.57694 7.82131 8.16366 8.23332C4.20857 12.1763 4.20857 18.5705 8.16366 22.5135C8.57694 22.9255 9.24598 22.9245 9.658 22.5112C10.07 22.0979 10.069 21.4289 9.6557 21.0168C6.52899 17.8997 6.52899 12.8471 9.6557 9.72997ZM22.4791 8.23332C22.0658 7.82131 21.3968 7.82233 20.9848 8.23562C20.5728 8.64891 20.5738 9.31795 20.9871 9.72997C24.1138 12.8471 24.1138 17.8997 20.9871 21.0168C20.5738 21.4289 20.5728 22.0979 20.9848 22.5112C21.3968 22.9245 22.0658 22.9255 22.4791 22.5135C26.4342 18.5705 26.4342 12.1763 22.4791 8.23332ZM12.4147 12.0216C12.8417 11.6237 12.8652 10.9551 12.4674 10.5281C12.0695 10.1012 11.4009 10.0777 10.9739 10.4755C8.10771 13.1467 8.10771 17.5113 10.9739 20.1824C11.4009 20.5803 12.0695 20.5567 12.4674 20.1298C12.8652 19.7029 12.8417 19.0342 12.4147 18.6364C10.4452 16.8009 10.4452 13.857 12.4147 12.0216ZM19.6688 10.4755C19.2419 10.0777 18.5733 10.1012 18.1754 10.5281C17.7775 10.9551 17.8011 11.6237 18.228 12.0216C20.1976 13.857 20.1976 16.8009 18.228 18.6364C17.8011 19.0342 17.7775 19.7029 18.1754 20.1298C18.5733 20.5567 19.2419 20.5803 19.6688 20.1824C22.5351 17.5113 22.5351 13.1467 19.6688 10.4755Z" fill="black"/>
</svg>
