<?xml version="1.0" encoding="UTF-8" standalone="no"?>
<svg
   width="30.4153"
   height="30.4153"
   viewBox="0 0 30.4153 30.4153"
   fill="currentColor"
   version="1.1"
   id="svg4"
   sodipodi:docname="validate.svg"
   xmlns:inkscape="http://www.inkscape.org/namespaces/inkscape"
   xmlns:sodipodi="http://sodipodi.sourceforge.net/DTD/sodipodi-0.dtd"
   xmlns="http://www.w3.org/2000/svg"
   xmlns:svg="http://www.w3.org/2000/svg">
  <defs
     id="defs8" />
  <sodipodi:namedview
     id="namedview6"
     pagecolor="#ffffff"
     bordercolor="#000000"
     borderopacity="0.25"
     inkscape:showpageshadow="2"
     inkscape:pageopacity="0.0"
     inkscape:pagecheckerboard="0"
     inkscape:deskcolor="#d1d1d1"
     showgrid="false" />
  <path
     fill-rule="evenodd"
     clip-rule="evenodd"
     d="M 4.5623,0 C 2.04261,0 0,2.04261 0,4.5623 V 25.853 c 0,2.5197 2.04261,4.5623 4.5623,4.5623 H 25.853 c 2.5197,0 4.5623,-2.0426 4.5623,-4.5623 V 4.5623 C 30.4153,2.04261 28.3727,0 25.853,0 Z M 15,24.050848 c 3.749313,0 6.788135,-2.262712 6.788135,-6.222458 0,-1.697034 -0.565678,-4.525423 -2.82839,-6.788135 0.282839,1.697034 -1.414195,2.262712 -1.414195,2.262712 0.848517,-2.82839 -1.414195,-6.7881368 -4.808262,-7.3538146 0.403894,2.2627118 0.565678,4.5254246 -2.262712,6.7881366 -1.4141945,1.131356 -2.2627114,3.08747 -2.2627114,5.091101 0,3.959746 3.0388214,6.222458 6.7881354,6.222458 z m 0,-1.131356 c -1.874657,0 -3.394068,-1.131356 -3.394068,-3.111229 0,-0.848517 0.282839,-2.262712 1.414195,-3.394068 -0.14142,0.848517 0.848517,1.414195 0.848517,1.414195 -0.424259,-1.414195 0.565678,-3.676906 2.262711,-3.959745 -0.202512,1.131356 -0.282838,2.262711 1.131356,3.394067 0.707098,0.565678 1.131356,1.54317 1.131356,2.545551 0,1.979873 -1.519411,3.111229 -3.394067,3.111229 z"
     fill="#000000"
     id="path2"
     sodipodi:nodetypes="ssssssssssscccssssscccsss" />
</svg>
