<?xml version="1.0" encoding="UTF-8" standalone="no"?>
<svg
   width="30.4153"
   height="30.4153"
   viewBox="0 0 30.4153 30.4153"
   fill="currentColor"
   version="1.1"
   id="svg4"
   xmlns="http://www.w3.org/2000/svg"
   xmlns:svg="http://www.w3.org/2000/svg">
  <defs
     id="defs8" />
  <path
     fill-rule="evenodd"
     clip-rule="evenodd"
     d="M 4.5623,0 C 2.04261,0 0,2.04261 0,4.5623 V 25.853 c 0,2.5197 2.04261,4.5623 4.5623,4.5623 H 25.853 c 2.5197,0 4.5623,-2.0426 4.5623,-4.5623 V 4.5623 C 30.4153,2.04261 28.3727,0 25.853,0 Z m 3.0584625,7.6207627 c -1.3584797,0 -2.4597454,1.1012651 -2.4597454,2.4597453 v 1.229873 c 0,1.35848 1.1012657,2.459746 2.4597454,2.459746 h 1.2298729 v 2.459746 H 7.6207625 c -1.3584797,0 -2.4597454,1.101265 -2.4597454,2.459746 v 1.229873 c 0,1.358479 1.1012657,2.459745 2.4597454,2.459745 H 22.379237 c 1.35848,0 2.459746,-1.101266 2.459746,-2.459745 v -1.229873 c 0,-1.358481 -1.101266,-2.459746 -2.459746,-2.459746 h -1.229873 v -2.459746 h 1.229873 c 1.35848,0 2.459746,-1.101266 2.459746,-2.459746 v -1.229873 c 0,-1.3584802 -1.101266,-2.4597453 -2.459746,-2.4597453 z m 0.6149364,3.6896183 c -0.8199144,0 -0.8199144,-1.229873 0,-1.229873 0.8199157,0 0.8199157,1.229873 0,1.229873 z m 2.4597461,0 c -0.8199147,0 -0.8199147,-1.229873 0,-1.229873 0.819915,0 0.819915,1.229873 0,1.229873 z m -2.4597461,8.609111 c -0.8199144,0 -0.8199144,-1.229873 0,-1.229873 0.8199157,0 0.8199157,1.229873 0,1.229873 z m 2.4597461,0 c -0.8199147,0 -0.8199147,-1.229873 0,-1.229873 0.819915,0 0.819915,1.229873 0,1.229873 z m 9.224046,-6.149365 v 2.459746 h -9.838983 v -2.459746 z"
     fill="#000000"
     id="path2" />
</svg>
