<?xml version="1.0" encoding="UTF-8" standalone="no"?>
<svg
   width="30.4153"
   height="30.4153"
   viewBox="0 0 30.4153 30.4153"
   fill="currentColor"
   version="1.1"
   id="svg4"
   xmlns="http://www.w3.org/2000/svg"
   xmlns:svg="http://www.w3.org/2000/svg">
  <defs
     id="defs8" />
  <path
     fill-rule="evenodd"
     clip-rule="evenodd"
     d="M 4.5623,0 C 2.04261,0 0,2.04261 0,4.5623 V 25.853 c 0,2.5197 2.04261,4.5623 4.5623,4.5623 H 25.853 c 2.5197,0 4.5623,-2.0426 4.5623,-4.5623 V 4.5623 C 30.4153,2.04261 28.3727,0 25.853,0 Z m 0.3395747,9.2369607 c 0,-0.3536487 0.2866889,-0.6403376 0.6403376,-0.6403376 H 6.18255 c 2.8200472,0 4.901145,1.5880379 6.242012,3.0966729 0.627531,0.706933 1.107784,1.411305 1.44204,1.961995 0.332976,-0.55069 0.81451,-1.255062 1.442041,-1.961995 1.340867,-1.508635 3.421964,-3.0966729 6.242012,-3.0966729 v 1.2806753 c -2.302655,0 -4.063583,1.2934826 -5.284067,2.6663666 -0.659932,0.747486 -1.226718,1.572294 -1.68793,2.456335 0.460812,0.883975 1.027167,1.708778 1.686649,2.456335 1.223045,1.372884 2.985255,2.666367 5.285348,2.666367 v 1.280675 c -2.820048,0 -4.901145,-1.588038 -6.242012,-3.096673 -0.538508,-0.609461 -1.021131,-1.266101 -1.442041,-1.961995 -0.332975,0.550691 -0.814509,1.255062 -1.44204,1.961995 -1.340867,1.508635 -3.4219648,3.096673 -6.242012,3.096673 H 5.5422123 c -0.8537832,0 -0.8537832,-1.280675 0,-1.280675 H 6.18255 c 2.3026544,0 4.063583,-1.293483 5.284067,-2.666367 C 12.126549,16.708849 12.693335,15.884041 13.154547,15 12.693734,14.116025 12.12738,13.291222 11.467897,12.543665 10.244852,11.170781 8.482643,9.8772984 6.18255,9.8772984 H 5.5422123 c -0.3536487,0 -0.6403376,-0.2866889 -0.6403376,-0.6403377 z M 21.550655,11.754769 V 6.7191529 c 1.01e-4,-0.2713591 0.316571,-0.4195595 0.525076,-0.2458896 l 3.022394,2.5178078 c 0.153681,0.1280675 0.153681,0.3637118 0,0.4917793 l -3.022394,2.5178076 c -0.208505,0.17367 -0.524975,0.02547 -0.525076,-0.245889 z m 0,11.526078 v -5.035616 c 1.01e-4,-0.271358 0.316571,-0.419559 0.525076,-0.245889 l 3.022394,2.517808 c 0.153681,0.128067 0.153681,0.363711 0,0.491779 l -3.022394,2.517808 c -0.208505,0.17367 -0.524975,0.02547 -0.525076,-0.24589 z"
     fill="#000000"
     id="path2" />
</svg>
