<svg
   viewBox="0 0 93.271362 57.634155"
   width="93.271362"
   height="57.634155"
   fill="currentColor"
   xmlns="http://www.w3.org/2000/svg">
    <path d="m 12.270752,50.635926 v 5.99823 c 0,0.552307 -0.447754,1 -1,1 H 0.99999995 c -0.5522461,0 -0.99999999765625,-0.447693 -0.99999999765625,-1 v -5.99823 c 0,-0.552246 0.44775389765625,-1 0.99999999765625,-1 H 11.270752 c 0.552246,0 1,0.447754 1,1 z m -1.441773,-4 H 1.4417725 V 1.9999996 c 0,-1.10455296 0.8954468,-1.99999996328125 2,-1.99999996328125 h 5.3872067 c 1.104554,0 1.9999998,0.89544700328125 1.9999998,1.99999996328125 v 2.328125 C 34.598266,23.025452 58.674133,23.025269 82.442444,4.3278196 v -2.32782 c 0,-1.10455296 0.895446,-1.99999996328125 2,-1.99999996328125 h 5.387207 c 1.104553,0 2,0.89544700328125 2,1.99999996328125 V 46.635926 H 82.442444 V 33.781922 H 10.828979 Z M 80.339844,28.781434 h 2.1026 V 10.591309 c -0.699829,0.50354 -1.40094,0.985352 -2.1026,1.458923 z m -7.800782,0 h 2.800782 V 15.163331 c -0.932434,0.532226 -1.865906,1.042175 -2.800782,1.522033 z m -7.800781,0 h 2.800781 v -9.784729 c -0.932739,0.384338 -1.866333,0.747497 -2.800781,1.080139 z m -7.801758,0 h 2.801758 V 21.60608 c -0.933411,0.239624 -1.86731,0.458923 -2.801758,0.647216 z m -7.800781,0 h 2.800781 v -5.768311 c -0.93341,0.09662 -1.867004,0.170532 -2.800781,0.216126 z m -7.80127,0 h 2.80127 v -5.552186 c -0.93396,-0.04559 -1.867676,-0.119506 -2.80127,-0.216186 z m -7.801269,0 h 2.801269 V 22.253113 C 35.400207,22.06482 34.46643,21.845643 33.533203,21.606019 Z m -7.800781,0 h 2.800781 v -8.704651 c -0.934509,-0.332581 -1.867981,-0.695862 -2.800781,-1.08014 z m -7.80127,0 h 2.80127 v -12.09607 c -0.935059,-0.479919 -1.868653,-0.98999 -2.80127,-1.522278 z m -7.102173,0 h 2.102173 V 12.05011 c -0.701477,-0.47345 -1.402405,-0.9552 -2.102173,-1.458618 z M 92.271362,49.635926 H 82.000671 c -0.552246,0 -1,0.447754 -1,1 v 5.99823 c 0,0.552307 0.447754,1 1,1 h 10.270691 c 0.552307,0 1,-0.447693 1,-1 v -5.99823 c 0,-0.552246 -0.447693,-1 -1,-1 z"/>
</svg>
