<svg xmlns="http://www.w3.org/2000/svg" width="62" height="62" fill="currentColor" viewBox="0 0 62 62">
    <path d="M 31.204958,1.2927313e-5 C 27.077277,0.00377269 22.990501,0.82892074 19.140505,2.4101691 13.540511,4.7101669 8.7397207,8.7109551 5.3397242,13.710951 c -0.3999996,0.599999 -0.1996088,1.498437 0.4003906,1.898437 0.2999997,0.1 0.5007815,0.201172 0.8007812,0.201172 0.3999996,0 0.7996097,-0.19961 1.0996094,-0.599609 C 13.940498,5.8109595 25.239735,1.1109525 36.339724,3.2109504 c 0.799999,0.1 1.501562,-0.4015632 1.601562,-1.1015625 0.1,-0.7999992 -0.401563,-1.49960944 -1.101562,-1.59960935 C 34.964726,0.1660289 33.081177,-0.00169605 31.204958,1.2927313e-5 Z M 49.607302,6.2949348 c -0.424804,-0.040039 -0.853516,0.1406253 -1.166016,0.515625 -0.499999,0.5999994 -0.40078,1.4003911 0.199219,1.9003906 10.39999,8.0999926 13.899995,22.1992306 8.5,34.1992186 -0.3,0.7 -7.81e-4,1.500782 0.699219,1.800782 0.2,0.1 0.401562,0.09961 0.601562,0.09961 0.6,0 1.098829,-0.300782 1.298828,-0.800781 1.399999,-3.299997 2.29961,-6.698832 2.59961,-10.298828 0.299999,-3.399997 0.0016,-6.901176 -0.898438,-10.201172 C 59.741288,16.809785 55.739718,10.809384 50.339724,6.6093879 50.114724,6.4218881 49.862184,6.3189582 49.607302,6.2949348 Z M 31.240114,13.210951 c -10.199989,-10e-7 -18.5,8.298447 -18.5,18.398437 0,10.19999 8.300011,18.5 18.5,18.5 10.19999,0 18.5,-8.298448 18.5,-18.398437 0,-10.19999 -8.30001,-18.5 -18.5,-18.5 z m 0,2.798828 c 8.599992,0 15.701172,7.00118 15.701172,15.701172 0,8.699991 -7.00118,15.699218 -15.701172,15.699218 -8.699991,0 -15.699218,-6.999227 -15.699218,-15.699218 0,-8.699992 7.099227,-15.701172 15.699218,-15.701172 z M 1.8455835,24.400404 c -0.6712884,0.03828 -1.21718759,0.496875 -1.30468751,1.109375 -1.0999989,5.699994 -0.5003885,11.599615 1.59960941,17.099609 2.0999979,5.399995 5.7003957,10.101566 10.4003906,13.601563 0.199999,0.199999 0.498828,0.298828 0.798828,0.298828 0.399999,0 0.901172,-0.200001 1.201172,-0.5 0.399999,-0.6 0.299218,-1.500391 -0.300782,-1.900391 C 5.5401239,47.609395 1.2401168,36.609768 3.2401148,26.009779 c 0.1,-0.8 -0.3996101,-1.49961 -1.0996094,-1.59961 -0.1,-0.0125 -0.1990235,-0.01523 -0.2949219,-0.0098 z m 52.5624995,24.49414 c -0.424804,-0.04004 -0.855469,0.140626 -1.167969,0.515625 -6.799993,8.199992 -18.000401,11.999607 -28.40039,9.59961 -0.7,-0.2 -1.39961,0.3 -1.59961,1 -0.199999,0.699999 0.300001,1.399609 1,1.599609 2.299998,0.5 4.700003,0.800781 7,0.800781 3.399997,0 6.799613,-0.49961 10.09961,-1.599609 5.499994,-1.899998 10.300003,-5.301176 14,-9.701172 0.499999,-0.599999 0.40078,-1.398438 -0.199219,-1.898437 -0.225,-0.1875 -0.477539,-0.292383 -0.732422,-0.316407 z" />
</svg>
