<?xml version="1.0" encoding="UTF-8" standalone="no"?>
<svg
   width="30.416016"
   height="30.416016"
   viewBox="0 0 30.416015 30.416015"
   fill="currentColor"
   version="1.1"
   id="svg4"
   sodipodi:docname="accelerator.svg"
   xmlns:inkscape="http://www.inkscape.org/namespaces/inkscape"
   xmlns:sodipodi="http://sodipodi.sourceforge.net/DTD/sodipodi-0.dtd"
   xmlns="http://www.w3.org/2000/svg"
   xmlns:svg="http://www.w3.org/2000/svg">
  <sodipodi:namedview
     id="namedview385"
     pagecolor="#ffffff"
     bordercolor="#000000"
     borderopacity="0.25"
     inkscape:showpageshadow="2"
     inkscape:pageopacity="0.0"
     inkscape:pagecheckerboard="0"
     inkscape:deskcolor="#d1d1d1"
     showgrid="false" />
  <defs
     id="defs8" />
  <path
     id="path2"
     style="display:inline"
     d="m 25.853516,0 c 2.519687,0 4.5625,2.0428125 4.5625,4.5625 v 21.291016 c 0,2.519697 -2.042813,4.5625 -4.5625,4.5625 H 4.5625 C 2.042803,30.416016 0,28.373213 0,25.853516 V 4.5625 C 0,2.0428125 2.042803,0 4.5625,0 Z m -2.275391,6.3066406 c -0.343354,-0.0053 -0.685681,0.00203 -1.029297,0.035156 -0.48014,0.04628 -0.932122,0.1717522 -1.324218,0.4667969 C 21.04168,6.9462431 20.859371,7.0846731 20.673828,7.2246094 20.382611,7.0141377 20.058423,6.8569007 19.701172,6.7773438 18.748508,6.5651799 17.782304,6.4988981 16.808594,6.5175781 c -1.070293,0.020524 -2.140608,0.037817 -3.210937,0.056641 -0.02055,4.799e-4 -0.04023,0.00335 -0.06641,0.00586 0.01209,0.1371157 0.02487,0.2690061 0.03516,0.4003907 0.02245,0.2879684 0.05468,0.5736128 0.154297,0.8476562 0.326533,0.8983502 0.95881,1.4987436 1.828124,1.8632812 0.574937,0.2410826 1.179964,0.3323908 1.798829,0.3378908 0.68234,0.006 1.36448,0 2.046875,0 h 0.09766 c -0.05431,0.518603 -0.214028,0.980545 -0.566406,1.359375 -0.232779,0.250253 -0.508253,0.373613 -0.865235,0.373047 -4.817203,-0.0074 -9.633958,-0.0059 -14.451172,-0.0059 H 3.482422 c 0,0.34809 0.0012,0.688001 0,1.027344 -0.00171,0.488969 0.036038,0.973844 0.111328,1.457031 0.171636,1.101635 0.522445,2.142421 1.06836,3.115235 0.66216,1.179965 1.551841,2.150703 2.683594,2.894531 1.246816,0.819445 2.628139,1.262288 4.101562,1.4375 0.122274,0.01454 0.243039,0.02824 0.373047,0.04297 v 2.378906 c 0.205221,0 0.403354,0.0054 0.599609,-0.002 0.174759,-0.0066 0.351001,-0.01752 0.523438,-0.04492 0.651143,-0.103493 1.211433,-0.385766 1.666015,-0.869141 0.307928,-0.327431 0.5184,-0.711744 0.669922,-1.138671 0.04886,-0.177279 0.09997,-0.346833 0.140625,-0.519532 0.01266,-0.0538 0.03533,-0.07559 0.08594,-0.08789 0.606367,-0.147478 1.187023,-0.361768 1.748047,-0.634766 1.120171,-0.545087 2.09248,-1.283045 2.90039,-2.232422 1.191808,-1.400504 1.845539,-3.038445 2.119141,-4.841797 0.094,-0.619592 0.137635,-1.243125 0.140625,-1.86914 0.0022,-0.466324 -0.0035,-0.931769 -0.07422,-1.394532 -0.02223,-0.145392 -0.04641,-0.292192 -0.07031,-0.441406 0.02229,-0.0018 0.0389,-0.0039 0.05469,-0.0039 0.539437,-10e-5 1.077889,0.0067 1.617188,-0.002 0.225103,-0.0036 0.453963,-0.01759 0.673828,-0.0625 1.069541,-0.2185268 1.7967,-0.8387424 2.152343,-1.8789063 0.180663,-0.5284058 0.174015,-1.0752448 0.160157,-1.6230469 -1.08e-4,-0.00403 -0.007,-0.00936 -0.01563,-0.019531 -0.02946,0 -0.06298,0.00112 -0.09766,0.00195 -0.737236,0.017855 -1.472505,-0.044587 -2.207031,-0.091797 -0.343271,-0.022068 -0.685947,-0.041605 -1.029297,-0.046875 z M 22.824219,7.53125 c 0.516157,0.00388 1.016773,0.00139 1.517578,0.017578 0.393173,0.012709 0.784983,0.048514 1.177735,0.074219 0.03711,0.00251 0.07492,0.00618 0.121093,0.00977 -0.09167,0.3236903 -0.246063,0.5973656 -0.501953,0.8066406 -0.307927,0.2518326 -0.67133,0.3709696 -1.0625,0.3769531 -0.706449,0.01101 -1.412527,0.00211 -2.11914,0.00391 -0.05578,1.436e-4 -0.08147,-0.015728 -0.107422,-0.068359 -0.105732,-0.2144125 -0.219768,-0.4244173 -0.332032,-0.6386719 0.337844,-0.3103755 0.709011,-0.5661656 1.201172,-0.5722656 0.03495,-3.6e-4 0.07056,-0.00666 0.105469,-0.00977 z m -5.101562,0.2050781 c 0.569424,0.00971 1.131252,0.093981 1.6875,0.2148438 0.418666,0.090967 0.725744,0.3487159 0.978515,0.6816406 0.03581,0.047149 0.0697,0.097838 0.103516,0.1464844 0.0059,0.00847 0.01043,0.017959 0.01953,0.035156 -0.02517,0.00216 -0.04485,0.00586 -0.06445,0.00586 -1.048701,-1.2e-4 -2.097833,0.00387 -3.146484,-0.00391 C 16.748033,8.8122633 16.213407,8.7110706 15.72461,8.4335938 15.460681,8.2837702 15.238256,8.0892646 15.06836,7.8359375 c -0.0075,-0.011201 -0.01674,-0.023428 -0.02344,-0.035156 -0.0025,-0.00428 -10e-4,-0.010061 -0.0039,-0.025391 0.342654,-0.00903 0.68244,-0.018364 1.023438,-0.027344 0.562671,-0.00563 1.111506,-0.021049 1.658203,-0.011719 z m 3.30664,2.2988279 c 0.03631,0.190516 0.08367,0.384099 0.109375,0.580078 0.0976,0.744144 0.0814,1.490399 0.02149,2.236328 -0.06718,0.836215 -0.228043,1.652635 -0.50586,2.445313 -0.418066,1.192834 -1.070446,2.235503 -1.996093,3.101563 -0.880298,0.82364 -1.89844,1.409475 -3.048829,1.767578 -0.02222,0.0069 -0.04576,0.01123 -0.07813,0.01953 v -2.121094 h -1.208984 v 0.09766 c 0,0.766037 0.0018,1.532813 -0.002,2.298829 -0.002,0.414172 -0.0491,0.821765 -0.189453,1.214843 -0.182663,0.511581 -0.496402,0.903633 -1.019532,1.09961 -0.02469,0.0093 -0.04998,0.01757 -0.08398,0.0293 v -7.404297 c -0.207367,-0.03112 -0.40916,-0.05049 -0.605469,-0.09375 -0.750416,-0.165344 -1.40083,-0.50322 -1.880859,-1.123047 -0.258147,-0.333327 -0.47476,-0.830556 -0.53125,-1.21875 h 5.976562 c 0.730973,0 1.445518,-0.0083 2.160157,0.002 0.518245,0.0074 0.967737,-0.161996 1.365234,-0.480469 0.580261,-0.4649 0.924869,-1.077365 1.09375,-1.792969 0.05051,-0.21404 0.07515,-0.434352 0.113281,-0.658203 z M 8.771485,12.96875 c 0.0277,0.130099 0.050531,0.258976 0.082031,0.386719 0.361568,1.466579 1.275308,2.43401 2.679688,2.955078 0.03786,0.01404 0.0769,0.02634 0.115234,0.03906 0.168806,0.05601 0.167969,0.05596 0.167969,0.238282 v 0.267578 C 10.556547,16.623608 9.073655,15.725138 8.47461,13.919922 8.37076,13.603269 8.296207,13.2922 8.253907,12.96875 Z m -1.753907,0.002 c 0.432043,2.799216 2.001804,4.531252 4.798829,5.142578 v 0.257813 0.291015 c -0.21199,-0.0474 -0.413944,-0.08612 -0.613282,-0.138671 C 10.211389,18.261998 9.332772,17.788517 8.572266,17.099609 8.426584,16.967647 8.29172,16.822517 8.152344,16.683594 7.194642,15.618233 6.63947,14.381162 6.435547,12.970703 Z m -1.800781,0 c 0.01432,0.0957 0.027229,0.195192 0.042969,0.294922 0.258808,1.640857 0.932979,3.086686 2.066406,4.304687 1.050299,1.128668 2.337183,1.852439 3.841797,2.189454 0.209986,0.04704 0.4236,0.0825 0.642578,0.125 v 0.632812 c -0.236219,-0.03266 -0.470509,-0.05308 -0.699219,-0.09961 -0.366266,-0.0745 -0.733143,-0.150104 -1.091796,-0.253907 -0.913741,-0.264463 -1.752004,-0.685246 -2.5,-1.277343 -1.184025,-0.943945 -1.9688,-2.147229 -2.431641,-3.56836 -0.23752,-0.729284 -0.369158,-1.477065 -0.392578,-2.24414 -9.52e-4,-0.03219 0,-0.0653 0,-0.103516 z m 7.824219,0.382813 c -0.299488,-0.0063 -0.584381,0.215746 -0.619141,0.554687 0.0018,0.05251 0.0011,0.09767 0.0078,0.142578 0.04096,0.275226 0.271395,0.490499 0.546875,0.511719 0.281941,0.02173 0.542103,-0.154285 0.626953,-0.423828 0.08389,-0.266476 -0.02827,-0.555865 -0.267578,-0.699219 -0.09488,-0.05682 -0.195092,-0.08374 -0.294922,-0.08594 z" />
</svg>
