<svg width="20" height="20" viewBox="0 0 20 20" fill="currentColor" xmlns="http://www.w3.org/2000/svg">
<path d="M10 6.425C9.86667 6.425 9.74167 6.44567 9.625 6.487C9.50834 6.52833 9.4 6.59933 9.3 6.7L6.7 9.3C6.51667 9.48333 6.425 9.71667 6.425 10C6.425 10.2833 6.51667 10.5167 6.7 10.7C6.88334 10.8833 7.11667 10.975 7.4 10.975C7.68334 10.975 7.91667 10.8833 8.1 10.7L9 9.8L9 13C9 13.2833 9.096 13.521 9.288 13.713C9.48 13.905 9.71734 14.0007 10 14C10.2833 14 10.521 13.904 10.713 13.712C10.905 13.52 11.0007 13.2827 11 13L11 9.8L11.9 10.7C12.0833 10.8833 12.3167 10.975 12.6 10.975C12.8833 10.975 13.1167 10.8833 13.3 10.7C13.4833 10.5167 13.575 10.2833 13.575 10C13.575 9.71667 13.4833 9.48333 13.3 9.3L10.7 6.7C10.6 6.6 10.4917 6.52933 10.375 6.488C10.2583 6.44667 10.1333 6.42567 10 6.425ZM10 1.50996e-06C11.3833 1.63089e-06 12.6833 0.262668 13.9 0.788002C15.1167 1.31334 16.175 2.02567 17.075 2.925C17.975 3.825 18.6873 4.88334 19.212 6.1C19.7367 7.31667 19.9993 8.61667 20 10C20 11.3833 19.7373 12.6833 19.212 13.9C18.6867 15.1167 17.9743 16.175 17.075 17.075C16.175 17.975 15.1167 18.6873 13.9 19.212C12.6833 19.7367 11.3833 19.9993 10 20C8.61667 20 7.31667 19.7373 6.1 19.212C4.88334 18.6867 3.825 17.9743 2.925 17.075C2.025 16.175 1.31234 15.1167 0.787003 13.9C0.26167 12.6833 -0.000663529 11.3833 3.25841e-06 10C3.37935e-06 8.61667 0.26267 7.31667 0.788004 6.1C1.31334 4.88333 2.02567 3.825 2.925 2.925C3.825 2.025 4.88334 1.31233 6.1 0.787002C7.31667 0.261669 8.61667 -0.000665278 10 1.50996e-06ZM10 2C7.78334 2 5.89567 2.779 4.337 4.337C2.77834 5.895 1.99934 7.78267 2 10C2 12.2167 2.779 14.1043 4.337 15.663C5.895 17.2217 7.78267 18.0007 10 18C12.2167 18 14.1043 17.221 15.663 15.663C17.2217 14.105 18.0007 12.2173 18 10C18 7.78333 17.221 5.89567 15.663 4.337C14.105 2.77833 12.2173 1.99933 10 2Z" fill="black"/>
</svg>
