<svg width="20" height="20" viewBox="0 0 20 20" fill="currentColor" xmlns="http://www.w3.org/2000/svg">
<path d="M10.95 0V2C15.34 2.54 18.45 6.53 17.91 10.92C17.6893 12.689 16.885 14.3339 15.6244 15.5944C14.3639 16.855 12.719 17.6593 10.95 17.88V19.88C16.45 19.28 20.4 14.34 19.8 8.85C19.28 4.19 15.61 0.5 10.95 0ZM8.95 0C6.99 0.18 5.14 0.95 3.62 2.2L5.05 3.74C6.17 2.84 7.52 2.26 8.95 2.06V0.0599999M2.21 3.67C0.95568 5.18495 0.185699 7.04196 0 9H2C2.19 7.58 2.75 6.23 3.64 5.1L2.21 3.67ZM0.00999999 11C0.21 12.96 0.98 14.81 2.22 16.33L3.64 14.9C2.75693 13.7696 2.19395 12.4226 2.01 11H0.00999999ZM5.01 16.37L3.62 17.74C5.13478 19.0027 6.98927 19.789 8.95 20V18C7.5274 17.816 6.1804 17.2531 5.05 16.37H5.01ZM10.95 11V5H8.95V11H10.95ZM10.95 15V13H8.95V15H10.95Z" fill="black
"/>
</svg>
